<?xml version="1.0" standalone="no"?>
<!DOCTYPE svg PUBLIC "-//W3C//DTD SVG 1.1//EN" "http://www.w3.org/Graphics/SVG/1.1/DTD/svg11.dtd" >
<svg xmlns="http://www.w3.org/2000/svg">
<metadata>Generated by IcoMoon</metadata>
<defs>
<font id="Blank-Theme-Icons" horiz-adv-x="1024">
<font-face units-per-em="1024" ascent="960" descent="-64" />
<missing-glyph horiz-adv-x="1024" />
<glyph unicode="&#x20;" horiz-adv-x="512" d="" />
<glyph unicode="&#xe600;" glyph-name="wishlist-full" d="M676.571 622.927c-59.867 28.197-131.255 2.523-159.415-57.307-1.975-4.133-3.657-9.362-5.157-15.397-1.499 6.034-3.182 11.264-5.157 15.397-28.197 59.831-99.547 85.504-159.415 57.307-59.831-28.197-85.504-99.547-57.271-159.378 28.197-59.867 221.806-231.424 221.806-231.424s0 0.219 0.037 0.585c0.037-0.366 0.037-0.585 0.037-0.585s193.646 171.557 221.806 231.424c28.233 59.831 2.597 131.182-57.271 159.378z" />
<glyph unicode="&#xe601;" glyph-name="wishlist-empty" d="M676.571 622.927c-59.831 28.197-131.218 2.523-159.451-57.307-1.938-4.133-3.657-9.362-5.157-15.397-1.463 6.034-3.182 11.264-5.157 15.397-28.16 59.831-99.547 85.504-159.378 57.307s-85.467-99.547-57.271-159.378 221.806-231.424 221.806-231.424 0 0.219 0.037 0.585c0-0.402 0-0.622 0-0.622s193.646 171.557 221.842 231.424c28.233 59.867 2.597 131.218-57.271 159.415zM690.213 464.463c-25.417-43.776-174.007-184.722-174.007-184.722l-1.573 2.999c0 0-155.465 140.398-181.211 183.991-30.61 51.822-7.753 108.946 38.949 128.439 43.52 18.176 101.888-27.319 123.502-73.143 1.499-3.182 17.627-1.463 18.798-6.107 1.134 4.645 12.727 2.926 14.226 6.107 21.577 45.824 81.042 93.989 128 72.411 46.007-21.138 66.926-72.155 33.317-129.975z" />
<glyph unicode="&#xe602;" glyph-name="warning" d="M512 689.341l-296.85-512.256h593.701l-296.85 512.256zM544.219 239.366h-62.757v49.92h62.757v-49.92zM528.713 328.6h-31.269l-20.809 140.654-1.207 72.704h72.521v-72.704l-19.237-140.654z" />
<glyph unicode="&#xe603;" glyph-name="update" d="M839.266 826.872c-95.466 79.384-211.827 118.307-327.062 118.307-132.956 0-265.399-52.034-364.347-152.315l-89.831 82.866-1.638-287.626 310.876-1.843-110.42 115.543c70.575 67.296 162.454 101.712 255.257 101.816 83.583-0.104 167.269-27.86 236.718-85.633 88.193-73.444 133.569-178.536 133.673-285.167 0-15.262-1.025-30.728-2.868-46.093l143.915 27.655c0.204 6.249 0.409 12.394 0.409 18.539 0.104 146.68-62.994 292.746-184.682 393.949zM769.1 166.502c-70.881-68.525-163.583-103.659-257.304-103.763-83.686 0.104-167.269 27.964-236.718 85.633-88.193 73.444-133.569 178.536-133.673 285.063 0 17.721 1.33 35.338 3.79 52.855l-144.529-27.143c-0.409-8.604-0.717-17.105-0.717-25.709-0.104-146.579 62.994-292.746 184.785-393.845 95.363-79.384 211.724-118.307 326.958-118.307h0.308c133.877 0 267.138 52.955 366.19 154.671l95.055-94.749 0.613 297.152-313.848 0.821 109.090-112.675z" />
<glyph unicode="&#xe604;" glyph-name="trash" d="M696.942 610.164l-19.273 6.107h-74.496v38.583l-12.544 21.029-22.711 13.495h-111.141l-23.333-13.495-12.581-21.029v-38.619h-73.765l-18.761-6.656-17.189-14.153v-88.869h19.017v-0.073h17.554v-329.435h36.571v0.293h255.415v-0.293h36.571v329.435h18.286v0.073h18.286v86.601l-15.909 17.006zM457.435 652.806h109.129v-36.571h-109.129v36.571zM639.707 213.949h-255.415v292.571h255.415v-292.571zM676.279 543.165h-328.558v36.498h328.558v-36.498zM457.435 468.742h-36.571v-218.587h36.571v218.587zM530.578 468.742h-36.571v-218.587h36.571v218.587zM603.721 468.742h-36.571v-218.587h36.571v218.587z" />
<glyph unicode="&#xe605;" glyph-name="star" d="M804.645 500.632c-1.499 4.681-5.888 7.899-10.789 7.899h-206.958l-64.073 196.754c-1.536 4.645-5.888 7.826-10.825 7.826-4.901 0-9.289-3.182-10.825-7.863l-64.439-196.754h-206.592c-4.901 0-9.289-3.218-10.825-7.863-1.499-4.681 0.146-9.874 4.096-12.763l167.205-121.783-64.439-197.851c-1.536-4.681 0.146-9.838 4.133-12.727 3.95-2.889 9.399-2.889 13.349 0l168.338 122.185 167.936-122.149c2.011-1.463 4.315-2.231 6.693-2.231s4.681 0.768 6.693 2.231c4.023 2.889 5.669 8.009 4.133 12.727l-64.439 197.851 167.57 121.783c3.95 2.889 5.632 8.046 4.059 12.727z" />
<glyph unicode="&#xe606;" glyph-name="settings" d="M807.241 401.085v67.145l-9.509 3.145-71.936 23.442-19.2 46.373 36.937 78.080-47.506 47.506-8.923-4.498-67.438-34.304-46.373 19.2-29.111 81.298h-67.182l-26.624-81.445-46.336-19.163-78.043 36.901-47.506-47.506 4.498-8.96 34.267-67.438-19.2-46.336-81.298-29.074v-67.218l9.472-3.072 71.973-23.515 19.163-46.373-36.901-78.080 47.506-47.506 8.887 4.498 67.474 34.304 46.373-19.2 29.111-81.298h67.182l3.072 9.509 23.515 71.936 46.373 19.2 78.080-36.937 47.506 47.506-4.498 8.923-34.304 67.438 19.2 46.373 81.298 29.147zM512 339.169c-51.968 0-94.062 42.13-94.062 94.062 0 52.005 42.094 94.062 94.062 94.062 51.931 0 94.098-42.057 94.098-94.062-0.037-51.931-42.167-94.062-94.098-94.062z" />
<glyph unicode="&#xe607;" glyph-name="pointer-down" d="M339.602 525.172l172.398-183.881 172.398 183.881z" />
<glyph unicode="&#xe608;" glyph-name="next" d="M606.939 435.169l-158.391 162.853-27.794-26.075 132.827-136.558-136.521-140.361 27.173-26.587 153.198 157.55-0.146 0.146z" />
<glyph unicode="&#xe609;" glyph-name="menu" d="M127.634 725.802v-73.143h768.731v73.143h-768.731zM127.634 396.66h768.731v73.143h-768.731v-73.143zM127.634 140.66h768.731v73.143h-768.731v-73.143z" />
<glyph unicode="&#xe60a;" glyph-name="location" d="M512 727.448c-102.437 0-185.417-83.054-185.417-185.454 0-102.437 185.417-403.017 185.417-403.017s185.454 300.581 185.454 403.017c-0.037 102.437-83.017 185.454-185.454 185.454zM512 485.674c-31.122 0-56.357 25.198-56.357 56.357 0 31.086 25.234 56.357 56.357 56.357 31.159 0 56.393-25.271 56.393-56.357-0.037-31.159-25.271-56.357-56.393-56.357z" />
<glyph unicode="&#xe60b;" glyph-name="list" d="M219.429 470.826h255.927v254.793h-255.927v-254.793zM548.571 725.62v-109.349h256v109.349h-256zM219.429 141.684h255.927v254.793h-255.927v-254.793zM548.571 469.985h256v109.349h-256v-109.349zM548.571 287.128h256v109.349h-256v-109.349zM548.571 140.842h256v109.349h-256v-109.349z" />
<glyph unicode="&#xe60c;" glyph-name="info" d="M579.511 662.241c-30.793 0-57.381-25.161-57.381-55.954 0-28.635 18.907-47.579 47.579-47.579 31.415 0 58.002 23.771 58.002 55.991 0 28.709-20.224 47.543-48.201 47.543zM593.518 321.725c-9.801 0-48.311-59.502-69.266-59.502-5.595 0-8.375 4.937-8.375 9.801 0 11.227 7.68 28.709 11.849 39.205l50.322 136.375c25.198 67.84-6.985 86.016-37.047 86.016-40.558 0-76.946-20.297-104.887-46.848-9.106-9.070-39.863-38.437-39.863-51.054 0-4.133 4.169-9.070 9.106-9.070 12.544 0 46.153 60.855 72.009 60.855 5.595 0 11.886-6.29 6.985-18.871l-48.896-123.173c-4.937-11.849-28.709-69.23-28.709-102.802 0-26.587 17.518-38.437 42.679-38.437 70.656 0 152.43 86.711 152.43 107.008 0 6.29-4.864 10.496-8.338 10.496z" />
<glyph unicode="&#xe60d;" glyph-name="grid" d="M219.063 579.151h147.017v147.017h-147.017v-147.017zM438.491 579.151h147.017v147.017h-147.017v-147.017zM657.92 726.168v-147.017h147.017v147.017h-147.017zM219.063 359.722h147.017v147.017h-147.017v-147.017zM438.491 359.722h147.017v147.017h-147.017v-147.017zM657.92 359.722h147.017v147.017h-147.017v-147.017zM219.063 140.294h147.017v147.017h-147.017v-147.017zM438.491 140.294h147.017v147.017h-147.017v-147.017zM657.92 140.294h147.017v147.017h-147.017v-147.017z" />
<glyph unicode="&#xe60e;" glyph-name="comment-reflected" d="M711.607 386.822l-5.486-5.522c21.065 27.794 32.878 60.197 32.219 94.72-1.975 99.218-106.679 177.627-233.874 175.141-127.232-2.487-228.791-84.992-226.816-184.21 1.938-99.182 106.679-177.554 233.911-175.067 28.635 0.585 50.432-5.815 75.63 2.121l159.232-78.702c-0.037-0.037-71.058 124.965-34.816 171.52z" />
<glyph unicode="&#xe60f;" glyph-name="collapse" d="M236.946 451.517h550.107v-36.571h-550.107v36.571z" />
<glyph unicode="&#xe610;" glyph-name="checkmark" d="M749.129 648.929c-152.101-93.257-262.473-210.907-312.064-269.934l-121.417 95.159-53.65-43.264 209.847-213.394c36.096 92.489 150.491 273.298 290.158 401.737l-12.873 29.696z" />
<glyph unicode="&#xe611;" glyph-name="cart" d="M434.871 245.181c-35.218 0-63.707-28.526-63.707-63.744 0-35.182 28.489-63.671 63.707-63.671 35.182 0 63.707 28.489 63.707 63.671 0 35.218-28.526 63.744-63.707 63.744zM654.848 245.181c-35.218 0-63.707-28.526-63.707-63.744 0-35.182 28.489-63.671 63.707-63.671 35.145 0 63.707 28.489 63.707 63.671 0 35.218-28.562 63.744-63.707 63.744zM784.274 601.972c-163.511 0-427.227 0-427.227 0s-25.929 70.071-49.957 113.371c-24.027 43.227-57.893 32.037-57.893 32.037-26.843 0-39.314-16.055-39.314-42.971 0-26.843 16.457-48.64 43.337-48.64l16.603-14.848 121.929-330.533 356.425-0.256c0 0 65.17 261.705 61.806 251.355 11.959 36.974-3.255 40.485-25.71 40.485zM392.485 477.775c-18.725 0-33.902 15.177-33.902 33.902s15.177 33.902 33.902 33.902 33.902-15.177 33.902-33.902-15.177-33.902-33.902-33.902zM464.933 364.623c-18.725 0-33.902 15.177-33.902 33.902s15.177 33.902 33.902 33.902 33.902-15.177 33.902-33.902-15.177-33.902-33.902-33.902zM502.199 477.775c-18.725 0-33.902 15.177-33.902 33.902s15.177 33.902 33.902 33.902 33.902-15.177 33.902-33.902-15.177-33.902-33.902-33.902zM574.647 364.623c-18.725 0-33.865 15.177-33.865 33.902s15.177 33.902 33.865 33.902 33.938-15.177 33.938-33.902-15.214-33.902-33.938-33.902zM611.913 477.775c-18.725 0-33.938 15.177-33.938 33.902s15.214 33.902 33.938 33.902 33.865-15.177 33.865-33.902-15.141-33.902-33.865-33.902zM684.361 364.623c-18.725 0-33.865 15.177-33.865 33.902s15.141 33.902 33.865 33.902 33.938-15.177 33.938-33.902-15.214-33.902-33.938-33.902zM721.627 477.775c-18.725 0-33.938 15.177-33.938 33.902s15.214 33.902 33.938 33.902 33.865-15.177 33.865-33.902-15.141-33.902-33.865-33.902z" />
<glyph unicode="&#xe612;" glyph-name="calendar" d="M642.487 563.535c11.959 0 21.65 9.691 21.65 21.65v77.934c0 11.959-9.691 21.65-21.65 21.65-11.922 0-21.65-9.691-21.65-21.65v-77.934c0.037-11.959 9.728-21.65 21.65-21.65zM381.842 563.535c11.922 0 21.65 9.691 21.65 21.65v77.934c0 11.959-9.728 21.65-21.65 21.65-11.959 0-21.65-9.691-21.65-21.65v-77.934c0.037-11.959 9.691-21.65 21.65-21.65zM671.269 621.793v-0.402c8.997-7.973 14.702-19.566 14.702-32.549 0-23.991-19.456-43.447-43.483-43.447-23.991 0-43.447 19.456-43.447 43.447 0 12.946 5.705 24.576 14.702 32.549v0.402h-203.154v-0.402c8.997-7.973 14.702-19.566 14.702-32.549 0-23.991-19.456-43.447-43.447-43.447-24.027 0-43.447 19.456-43.447 43.447 0 12.946 5.669 24.576 14.665 32.549v0.402h-96.841v-440.101h511.561v440.101h-96.512zM732.087 219.8h-437.76v291.694h437.76v-291.694zM619.301 392.344h-55.15v-55.113h55.15v55.113zM619.301 475.252h-55.15v-55.113h55.15v55.113zM619.301 311.741h-55.15v-55.15h55.15v55.15zM696.942 475.252h-55.15v-55.113h55.15v55.113zM696.942 392.344h-55.15v-55.113h55.15v55.113zM386.267 311.741h-55.113v-55.15h55.113v55.15zM463.982 311.741h-55.15v-55.15h55.15v55.15zM463.982 392.344h-55.15v-55.113h55.15v55.113zM386.267 392.344h-55.113v-55.113h55.113v55.113zM541.586 392.344h-55.113v-55.113h55.113v55.113zM541.586 475.252h-55.113v-55.113h55.113v55.113zM463.982 475.252h-55.15v-55.113h55.15v55.113zM541.586 311.741h-55.113v-55.15h55.113v55.15z" />
<glyph unicode="&#xe613;" glyph-name="arrow-up" d="M512 662.973l-209.006-253.257h136.338v-206.19h145.298v206.19h136.375z" />
<glyph unicode="&#xe614;" glyph-name="arrow-down" d="M584.631 456.746v206.226h-145.298v-206.226h-136.338l209.006-253.221 209.006 253.221z" />
<glyph unicode="&#xe615;" glyph-name="search" d="M836.462 169.149c0 0-109.641 112.677-153.381 156.233-19.054 19.017-32.073 31.927-32.073 31.927 14.848 21.211 26.405 44.361 34.633 69.339s12.361 51.237 12.361 78.848c0 35.621-6.802 69.083-20.334 100.462-13.568 31.305-32 58.697-55.406 82.030-23.369 23.442-50.725 41.874-82.066 55.406-31.305 13.605-64.768 20.37-100.389 20.37-35.584 0-69.047-6.802-100.425-20.37-31.305-13.531-58.551-31.963-81.664-55.406-23.077-23.296-41.435-50.688-54.967-81.993-13.568-31.378-20.334-64.841-20.334-100.462s6.802-69.083 20.334-100.389c13.531-31.305 31.89-58.661 54.967-82.103 23.113-23.333 50.322-41.801 81.664-55.369 31.378-13.568 64.841-20.297 100.425-20.297 27.648 0 53.943 4.023 78.885 12.288s48.091 19.858 69.303 34.706c0 0 11.922-11.959 29.696-29.806 48.421-48.603 155.026-159.159 155.026-159.159 16.018-6.985 41.728 0.439 54.455 11.337s19.858 33.682 9.289 52.407zM612.718 432.244c-9.838-22.747-23.223-42.569-40.155-59.429-16.933-16.933-36.718-30.354-59.429-40.192-22.638-9.874-46.848-14.775-72.521-14.775-26.258 0-50.688 4.937-73.362 14.775s-42.496 23.259-59.429 40.192c-16.896 16.859-30.354 36.681-40.155 59.429-9.838 22.601-14.738 47.104-14.738 73.289 0 25.673 4.901 50.030 14.738 72.997 9.838 22.93 23.259 42.898 40.155 59.794 16.933 16.969 36.754 30.354 59.429 40.155 22.674 9.911 47.104 14.738 73.362 14.738 25.673 0 49.883-4.864 72.521-14.738 22.674-9.801 42.496-23.186 59.429-40.155 16.933-16.933 30.318-36.901 40.155-59.831 9.874-22.967 14.738-47.323 14.738-72.997 0-26.149-4.901-50.651-14.738-73.253z" />
<glyph unicode="&#xe616;" glyph-name="remove" d="M695.845 587.892l-29.147 29.111-154.697-154.734-154.734 154.734-29.111-29.111 154.734-154.734-154.624-154.624 29.111-29.074 154.624 154.587 154.661-154.587 29.038 29.074-154.587 154.624z" />
<glyph unicode="&#xe617;" glyph-name="prev" d="M470.418 435.389l132.791 136.558-27.794 26.075-158.354-162.853 9.618-9.033-0.11-0.146 153.234-157.55 27.136 26.587z" />
<glyph unicode="&#xe618;" glyph-name="pointer-up" d="M512 525.172l-172.398-183.881h344.795z" />
<glyph unicode="&#xe619;" glyph-name="pointer-right" d="M392.119 607.274v-348.087l239.726 174.043z" />
<glyph unicode="&#xe61a;" glyph-name="pointer-left" d="M392.119 433.231l239.726-174.043v348.087z" />
<glyph unicode="&#xe61b;" glyph-name="flag" d="M237.714 176.39h73.728v513.682h-73.728v-513.682zM786.286 688.317h-440.283v-292.169h440.283l-148.078 144.128 148.078 148.041z" />
<glyph unicode="&#xe61c;" glyph-name="expand" d="M787.054 451.59h-256.219v256.695h-36.571v-256.695h-257.317v-36.571h257.317v-256.841h36.571v256.841h256.219z" />
<glyph unicode="&#xe61d;" glyph-name="envelope" d="M1024.001 724.513v72.82h-1021.816v-50.319l-2.184-2.184 2.184-2.184v-18.132h1.239v-582.563h-1.239v-17.041l-2.184-2.184 2.184-2.184v-51.41h1021.816v72.82h-1.165v582.563h1.165zM894.088 141.949h-771.896l238.705 238.705-51.484 51.484-233.243-233.243v470.638l438.088-432.262 51.484 51.484-2.768 2.694 387.040 386.969v-489.572l-243.221 243.221-51.484-51.484 238.779-238.633zM124.159 724.513h768.912l-381.871-381.871-387.040 381.871z" />
<glyph unicode="&#xe61e;" glyph-name="compare-full" d="M310.747 195.59h109.166v328.485h-109.166v-328.485zM604.050 340.815v-145.225h109.202v145.225h-109.202zM457.399 195.59h109.202v475.319h-109.202v-475.319z" />
<glyph unicode="&#xe61f;" glyph-name="compare-empty" d="M310.747 195.59h109.166v328.485h-109.166v-328.485zM347.941 488.856h36.864v-256.768h-36.864v256.768zM604.050 340.815v-145.225h109.202v145.225h-109.202zM677.339 231.942h-36.827v71.863h36.827v-71.863zM457.399 195.59h109.202v475.319h-109.202v-475.319zM494.263 635.069h36.827v-402.834h-36.827v402.834z" />
<glyph unicode="&#xe620;" glyph-name="comment" d="M519.57 651.124c-127.232 2.487-231.936-75.922-233.911-175.141-0.695-34.487 11.154-66.926 32.219-94.72l-5.486 5.522c36.242-46.519-34.816-171.52-34.816-171.52l159.232 78.702c25.161-7.936 46.994-1.536 75.63-2.121 127.232-2.487 231.973 75.886 233.911 175.067 2.011 99.255-99.511 181.723-226.779 184.21z" />
<glyph unicode="&#xe621;" glyph-name="up" d="M514.158 474.813l136.558-132.791 26.075 27.794-162.853 158.354-166.729-162.743 26.587-27.136z" />
<glyph unicode="&#xe622;" glyph-name="down" d="M509.842 391.649l-136.558 132.791-26.075-27.794 162.853-158.354 166.729 162.743-26.587 27.136z" />
<glyph unicode="&#xe623;" glyph-name="help" d="M512 37.236c-218.77 0-396.032 177.298-396.032 395.995s177.262 395.995 396.032 395.995c218.661 0 396.032-177.298 396.032-395.995s-177.371-395.995-396.032-395.995zM512 781.318c-191.89 0-348.087-156.197-348.087-348.087 0-191.927 156.197-348.087 348.087-348.087s348.050 156.16 348.050 348.087c-0.037 191.927-156.16 348.087-348.050 348.087zM611.328 427.672l-24.101-18.761c-13.166-10.24-21.87-22.126-26.185-35.84-2.743-8.558-4.681-18.907-4.901-37.12h-92.343c1.353 38.473 5.413 61.842 11.301 76.581 5.925 14.592 21.102 31.488 45.531 50.578l24.795 19.383c8.192 6.181 14.738 12.91 19.785 20.187 8.997 12.471 13.495 26.222 13.495 41.216 0 17.262-5.010 32.987-15.104 47.214-10.057 14.226-28.453 21.321-55.259 21.321-26.295 0-44.946-8.777-55.918-26.295s-16.384-33.463-16.384-52.37h-98.523c2.706 64.805 25.234 108.544 67.73 135.57 26.843 17.298 59.794 25.929 98.889 25.929 51.383 0 94.025-12.288 128-36.827 34.011-24.503 53.87-74.935 53.87-123.173 0-29.55-10.24-40.338-25.051-60.599-8.558-12.288-25.125-27.941-49.627-46.994zM561.042 187.654h-98.231v98.487h98.231v-98.487z" />
<glyph unicode="&#xe624;" glyph-name="arrow-right-thin" d="M1.994 503.981h748.928l-283.278 291.206h200.254l354.108-363.956-354.108-363.956h-200.254l283.278 291.174h-748.928v145.532z" />
<glyph unicode="&#xe625;" glyph-name="arrow-left-thin" d="M1022.006 360.481h-748.928l283.278-291.206h-200.254l-354.108 363.956 354.108 363.956h200.254l-283.278-291.174h748.928v-145.532z" />
<glyph unicode="&#xe626;" glyph-name="arrow-down-thin" d="M85.174 453.257l0.504-106.238 426.322-426.324 426.32 426.324 0.504 106.238-389.444-389.444 0.002 880.006h-74.764v-880.004z" />
<glyph unicode="&#xe627;" glyph-name="account" d="M511.963 816.317c-211.529 0-383.049-171.52-383.049-383.086s171.483-383.086 383.049-383.086c211.602 0 383.086 171.483 383.086 383.086s-171.483 383.086-383.086 383.086zM511.963 779.745c191.086 0 346.514-155.429 346.514-346.514 0-79.909-27.429-153.344-73.070-212.041-5.486 1.975-11.008 3.84-16.274 6.107-34.926 14.629-73.801 31.781-108.654 46.153-9.911 2.706-19.931 5.413-29.842 8.155-11.849 8.155-23.589 35.365-29.915 48.933-6.29 0.914-12.654 1.792-19.017 2.633 0.914 20.992 13.934 22.126 19.017 38.071 4.498 14.080 0.512 32.439 7.57 45.495 4.937 9.070 16.128 9.070 21.65 16.933 5.083 6.985 8.411 19.273 9.984 27.941 2.853 15.799 5.339 37.339-2.158 53.029-4.279 8.96-6.985 9.874-8.229 20.736-1.426 13.275 3.913 56.43 4.133 65.755 0.512 24.21-0.073 26.149-5.925 49.737 0 0-7.058 21.358-18.213 27.831l-22.272 3.803-13.714 12.727c-55.369 34.085-114.761 10.167-146.505-2.67-45.824-14.885-74.789-59.758-54.565-155.538 3.474-16.421-8.96-23.698-8.155-32.658 1.829-19.566 2.158-66.487 20.59-78.080 1.719-1.061 14.811-4.352 14.738-3.438 1.792-19.017 3.621-38.071 5.376-57.015 4.608-12.654 15.689-14.080 18.907-31.927l-14.153-3.438c-6.363-13.568-17.993-40.777-29.879-48.933-9.947-2.706-19.931-5.413-29.879-8.155-34.889-14.373-73.691-31.488-108.654-46.153-1.902-0.768-3.877-1.39-5.815-2.158-43.776 58.112-70.071 130.011-70.071 208.165 0 191.086 155.429 346.514 346.478 346.514z" />
<glyph unicode="&#xe628;" glyph-name="gift-registry" d="M427.703 638.25c0-10.569-8.558-19.090-19.090-19.090h-11.154c-10.533 0-19.090 8.521-19.090 19.090v68.462c0 10.533 8.594 19.090 19.090 19.090h11.154c10.533 0 19.090-8.558 19.090-19.090v-68.462zM645.778 638.25c0-10.569-8.521-19.090-19.054-19.090h-11.154c-10.533 0-19.054 8.521-19.054 19.090v68.462c-0.037 10.533 8.485 19.090 19.054 19.090h11.154c10.533 0 19.054-8.558 19.054-19.090v-68.462zM675.182 466.548l-38.729 31.598-152.795-187.282-81.518 64.805-28.891-36.242 120.21-95.634zM758.784 673.213h-71.351v-29.769c0-31.634-25.746-57.344-57.271-57.344h-11.227c-31.598 0-57.271 25.71-57.271 57.344v29.769h-97.682v-29.769c0-31.634-25.71-57.344-57.307-57.344h-11.154c-31.598 0-57.307 25.71-57.307 57.344v29.769h-72.96c-10.533 0-19.090-8.521-19.090-19.054v-494.373c-0.037-10.569 8.558-19.127 19.090-19.127h493.531c10.533 0 19.054 8.558 19.054 19.090v494.409c0 10.533-8.521 19.054-19.054 19.054zM720.567 225.908c0-10.569-8.558-19.090-19.090-19.090h-378.917c-10.569 0-19.090 8.521-19.090 19.090v288.11c0 10.569 8.521 19.054 19.090 19.054h378.88c10.533 0 19.090-8.485 19.090-19.054v-288.11z" />
<glyph unicode="&#xe629;" glyph-name="present" d="M391.863 539.434h-128.219c-10.35 0-18.761-8.375-18.761-18.725v-91.429c0-10.35 8.375-18.725 18.761-18.725h128.219c10.35 0 18.761 8.375 18.761 18.725v91.429c0 10.386-8.375 18.725-18.761 18.725zM391.863 372.742h-90.734c-10.35 0-18.761-8.375-18.761-18.725v-194.633c0-10.35 8.411-18.725 18.761-18.725h90.734c10.35 0 18.761 8.375 18.761 18.725v194.633c0 10.35-8.375 18.725-18.761 18.725zM760.357 539.434h-279.845c-10.35 0-18.725-8.375-18.725-18.725v-91.429c0-10.35 8.375-18.725 18.725-18.725h279.845c10.313 0 18.725 8.375 18.725 18.725v91.429c-0.037 10.386-8.411 18.725-18.725 18.725zM721.701 370.804h-240.64c-10.313 0-18.725-8.375-18.725-18.761v-192.695c0-10.35 8.375-18.725 18.725-18.725h240.64c10.35 0 18.725 8.375 18.725 18.725v192.695c0 10.35-8.375 18.761-18.725 18.761zM507.355 560.865c21.87-3.986 42.971-6.327 62.647-6.327 99.072 0 152.832 53.248 153.088 103.387 0.183 32.293-23.698 67.291-78.117 67.84-72.923 0-118.089-51.493-141.605-89.71-23.918 38.107-69.266 88.576-142.373 88.576-52.882-0.549-76.763-35.547-76.581-67.84 0.256-50.139 54.016-103.424 153.088-103.424 0.037 0 0.037 0 0.037 0 21.394 0 44.398 2.414 68.425 7.241l1.39 0.256zM645.998 678.954c9.143-0.073 30.354-2.304 30.245-20.773-0.11-23.589-33.17-56.795-106.24-56.795-10.057 0-20.553 0.658-31.525 1.938 16.567 29.294 51.566 75.63 107.52 75.63zM437.504 600.216v0c-73.106 0-106.167 33.207-106.277 56.795-0.11 18.469 21.102 20.699 31.305 20.809 55.259 0 90.039-46.373 106.496-75.666-10.935-1.28-21.467-1.938-31.525-1.938z" />
<glyph unicode="&#xe633;" glyph-name="arrow-up-thin" d="M938.824 411.259l-0.504 106.238-426.32 426.322-426.322-426.322-0.504-106.238 389.444 389.442v-880.006h74.764v880.006z" />
<glyph unicode="&#xe801;" glyph-name="user" horiz-adv-x="963" d="M753.664 205.903q208.896-73.728 208.896-124.928v-108.544h-962.56v108.544q0 51.2 208.896 124.928 96.256 34.816 131.072 70.656t34.816 97.28q0 22.528-22.528 50.176t-32.768 74.752q-2.048 12.288-9.216 18.432t-14.336 8.192-14.336 17.408-9.216 44.032q0 16.384 5.12 26.624t9.216 12.288l4.096 4.096q-8.192 51.2-12.288 90.112-4.096 55.296 41.984 114.688t160.768 59.392 161.792-59.392 40.96-114.688l-12.288-90.112q18.432-8.192 18.432-43.008-2.048-28.672-9.216-44.032t-14.336-17.408-14.336-8.192-9.216-18.432q-8.192-49.152-31.744-75.776t-23.552-49.152q0-61.44 35.84-97.28t130.048-70.656z" />
<glyph unicode="&#xe802;" glyph-name="mail" horiz-adv-x="922" d="M30.72 674.895q-32.768 18.432-28.672 40.96 2.048 14.336 26.624 14.336h866.304q38.912 0 20.48-32.768-8.192-14.336-24.576-22.528-14.336-6.144-196.608-104.448t-186.368-100.352q-16.384-10.24-47.104-10.24-28.672 0-47.104 10.24-4.096 2.048-186.368 100.352t-196.608 104.448zM901.12 572.495q20.48 10.24 20.48-10.24v-376.832q0-16.384-17.408-32.768t-33.792-16.384h-819.2q-16.384 0-33.792 16.384t-17.408 32.768v376.832q0 20.48 20.48 10.24l393.216-204.8q18.432-10.24 47.104-10.24t47.104 10.24z" />
<glyph unicode="&#xe803;" glyph-name="basket" horiz-adv-x="922" d="M153.6 74.831q0 40.96 30.72 71.68t71.68 30.72q43.008 0 72.704-30.72t29.696-71.68q0-43.008-29.696-72.704t-72.704-29.696q-40.96 0-71.68 29.696t-30.72 72.704zM665.6 74.831q0 40.96 30.72 71.68t71.68 30.72q43.008 0 72.704-30.72t29.696-71.68q0-43.008-29.696-72.704t-72.704-29.696q-40.96 0-71.68 29.696t-30.72 72.704zM335.872 316.495q-36.864-10.24-34.816-23.552t45.056-13.312h575.488v-77.824q0-20.48-20.48-20.48h-669.696q-20.48 0-20.48 20.48v77.824l-10.24 47.104-100.352 464.896h-100.352v81.92q0 20.48 20.48 20.48h159.744q20.48 0 20.48-20.48v-88.064h720.896v-280.576q0-22.528-18.432-26.624z" />
<glyph unicode="&#xe804;" glyph-name="phone1" horiz-adv-x="819" d="M346.936 371.791q-165.888 165.888-120.832 210.944l8.192 8.192q30.72 30.72 41.984 49.152t4.096 55.296-50.176 90.112q-20.48 24.576-37.888 39.936t-35.84 16.384-30.72 1.024-29.696-13.312-24.576-18.432-26.624-25.6-21.504-22.528q-49.152-49.152 6.144-198.656t208.896-301.056q153.6-153.6 302.080-209.92t197.632-7.168q2.048 2.048 23.552 22.528t25.6 25.6 18.432 24.576 13.312 31.744-2.048 30.72-15.36 35.84-38.912 37.888q-43.008 34.816-71.68 48.128t-55.296 2.048-35.84-18.432-39.936-37.888q-45.056-45.056-212.992 122.88z" />
<glyph unicode="&#xe805;" glyph-name="right-open-big" horiz-adv-x="476" d="M13.312 54.351l366.592 378.88-366.592 380.928q-26.624 26.624 0 49.152 26.624 26.624 49.152 0l401.408-403.456q24.576-26.624 0-51.2l-401.408-403.456q-22.528-26.624-49.152 0-26.624 22.528 0 49.152z" />
<glyph unicode="&#xe806;" glyph-name="twitter" horiz-adv-x="942" d="M942.080 726.095q-36.864-55.296-96.256-100.352v-24.576q0-133.12-61.44-256t-190.464-207.872-296.96-84.992q-163.84 0-296.96 86.016 14.336-2.048 47.104-2.048 135.168 0 239.616 81.92-63.488 2.048-112.64 38.912t-67.584 96.256q10.24-4.096 34.816-4.096 26.624 0 51.2 6.144-67.584 14.336-110.592 67.584t-43.008 122.88v2.048q36.864-20.48 86.016-24.576-86.016 59.392-86.016 161.792 0 49.152 26.624 96.256 157.696-192.512 399.36-200.704-6.144 18.432-6.144 43.008 0 79.872 56.32 136.192t138.24 56.32q83.968 0 139.264-59.392 61.44 12.288 122.88 45.056-20.48-67.584-83.968-106.496 57.344 8.192 110.592 30.72z" />
<glyph unicode="&#xe807;" glyph-name="gplus" horiz-adv-x="918" d="M49.152 660.559q0 59.392 25.6 104.448t57.344 66.56 70.656 34.816 57.344 15.36 26.624 2.048h235.52v-4.096q0-22.528-79.872-36.864-28.672 0-38.912-6.144 40.96-20.48 55.296-57.344t14.336-98.304q0-104.448-69.632-161.792-38.912-38.912-38.912-55.296 0-18.432 51.2-65.536 106.496-92.16 106.496-182.272 0-143.36-118.784-198.656-69.632-34.816-153.6-34.816h-4.096l-4.096 2.048q-2.048-2.048-4.096-2.048-24.576 0-55.296 5.12t-76.8 21.504-75.776 58.368-29.696 105.472q0 61.44 32.768 103.424t84.992 58.368 90.112 22.528 72.704 6.144h2.048q-16.384 22.528-24.576 48.128t-8.192 39.936l2.048 14.336h-14.336q-65.536 0-112.64 30.72-75.776 45.056-75.776 163.84zM428.032 197.711q-4.096 53.248-44.032 86.016t-105.472 32.768h-16.384q-65.536-2.048-116.736-47.104-47.104-43.008-43.008-96.256t54.272-81.92 121.856-24.576q69.632 4.096 111.616 40.96t37.888 90.112zM366.592 709.711q-30.72 110.592-124.928 110.592-12.288 0-20.48-2.048-40.96-12.288-59.392-63.488-16.384-51.2-2.048-108.544 14.336-53.248 48.128-87.040t72.704-33.792q12.288 0 18.432 2.048 43.008 12.288 64.512 66.56t3.072 115.712zM763.904 531.535h153.6v-96.256h-153.6v-153.6h-96.256v153.6h-153.6v96.256h153.6v153.6h96.256v-153.6z" />
<glyph unicode="&#xe808;" glyph-name="facebook" horiz-adv-x="512" d="M512 734.287h-145.408q-14.336 0-25.6-15.36t-11.264-37.888v-104.448h182.272v-151.552h-182.272v-452.608h-174.080v452.608h-155.648v151.552h155.648v88.064q0 96.256 60.416 162.816t150.528 66.56h145.408v-159.744z" />
<glyph unicode="&#xe809;" glyph-name="pinterest" horiz-adv-x="797" d="M327.68 269.391q-26.624-133.12-59.392-216.064t-98.304-132.096q-6.144 75.776-7.168 122.88t11.264 112.64 22.528 106.496 26.624 101.376 24.576 101.376q-24.576 53.248-19.456 118.784t49.152 108.544 101.376 20.48q40.96-16.384 45.056-60.416t-13.312-97.28-32.768-105.472-4.096-92.16 64.512-50.176q69.632-14.336 123.904 38.912t75.776 134.144 11.264 166.912-55.296 131.072q-63.488 65.536-154.624 71.68t-166.912-33.792-122.88-119.808-32.768-174.080q4.096-22.528 22.528-53.248t21.504-48.128-17.408-68.608q-149.504 34.816-143.36 235.52 4.096 141.312 107.52 239.616t238.592 114.688q167.936 18.432 296.96-58.368t147.456-224.256q26.624-180.224-67.584-324.608t-258.048-132.096q-22.528 2.048-43.008 9.216t-30.72 13.312-31.744 21.504-31.744 21.504z" />
<glyph unicode="&#xe80a;" glyph-name="instagram" horiz-adv-x="881" d="M706.56 433.231q0 26.624-6.144 51.2h180.224v-352.256q0-57.344-39.936-98.304t-97.28-40.96h-606.208q-57.344 0-97.28 40.96t-39.936 98.304v352.256h178.176q-4.096-32.768-4.096-51.2 0-108.544 77.824-187.392t188.416-78.848q108.544 0 187.392 78.848t78.848 187.392zM743.424 873.551q57.344 0 97.28-39.936t39.936-97.28v-149.504h-223.232q-79.872 112.64-217.088 112.64-141.312 0-217.088-112.64h-223.232v149.504q0 57.344 39.936 97.28t97.28 39.936h606.208zM808.96 703.567v73.728q0 24.576-24.576 24.576h-73.728q-24.576 0-24.576-24.576v-73.728q0-8.192 7.168-16.384t17.408-8.192h73.728q24.576 0 24.576 24.576zM604.16 433.231q0-67.584-48.128-115.712t-115.712-48.128-115.712 48.128-48.128 115.712q0 69.632 48.128 116.736t115.712 47.104 115.712-47.104 48.128-116.736z" />
<glyph unicode="&#xe80b;" glyph-name="print2" horiz-adv-x="1004" d="M67.584 613.455q-26.624 0-22.528 22.528 4.096 10.24 12.288 14.336 2.048 0 50.176 17.408t95.232 32.768 59.392 15.36h45.056v153.6h389.12v-153.6h47.104q12.288 0 58.368-15.36t94.208-32.768 50.176-17.408q18.432-8.192 12.288-26.624-4.096-10.24-20.48-10.24h-870.4zM948.224 556.111q20.48 0 37.888-19.456t17.408-41.984v-178.176q0-22.528-17.408-41.984t-37.888-19.456h-102.4l45.056-256h-778.24l45.056 256h-100.352q-20.48 0-38.912 19.456t-18.432 41.984v178.176q0 22.528 18.432 41.984t38.912 19.456h890.88zM215.040 101.455h573.44l-71.68 331.776h-430.080z" />
<glyph unicode="&#xe80c;" glyph-name="youtube2" horiz-adv-x="878" d="M555.008 234.575v-120.832q0-37.888-22.528-37.888-13.312 0-25.6 12.288v172.032q12.288 12.288 25.6 12.288 22.528 0 22.528-37.888zM747.52 233.551v-25.6h-51.2v25.6q0 38.912 25.6 38.912t25.6-38.912zM195.584 358.479h61.44v53.248h-178.176v-53.248h60.416v-325.632h56.32v325.632zM360.448 32.847h51.2v282.624h-51.2v-216.064q-17.408-23.552-32.768-23.552-10.24 0-11.264 11.264-1.024 2.048-1.024 20.48v207.872h-51.2v-223.232q0-28.672 5.12-41.984 7.168-21.504 32.768-21.504 27.648 0 58.368 34.816v-30.72zM606.208 117.839v112.64q0 41.984-5.12 56.32-10.24 31.744-40.96 31.744-28.672 0-53.248-30.72v123.904h-51.2v-378.88h51.2v27.648q25.6-31.744 53.248-31.744 30.72 0 40.96 31.744 5.12 15.36 5.12 57.344zM798.72 123.983v7.168h-52.224q0-29.696-1.024-34.816-4.096-20.48-22.528-20.48-26.624 0-26.624 38.912v50.176h102.4v58.368q0 45.056-15.36 66.56-22.528 28.672-60.416 28.672-38.912 0-61.44-28.672-15.36-21.504-15.36-66.56v-98.304q0-45.056 16.384-66.56 22.528-29.696 61.44-29.696 40.96 0 61.44 30.72 10.24 15.36 12.288 30.72 1.024 5.12 1.024 33.792zM451.584 645.199v119.808q0 39.936-24.576 39.936t-24.576-39.936v-119.808q0-39.936 24.576-39.936t24.576 39.936zM862.208 216.143q0-134.144-14.336-199.68-8.192-33.792-33.792-57.344t-58.368-25.6q-104.448-12.288-316.416-12.288t-317.44 12.288q-32.768 3.072-58.368 25.6t-32.768 57.344q-15.36 63.488-15.36 199.68 0 134.144 15.36 199.68 7.168 33.792 32.768 57.344t58.368 26.624q105.472 11.264 317.44 11.264t316.416-11.264q33.792-4.096 58.368-26.624t33.792-57.344q14.336-63.488 14.336-199.68zM291.84 945.231h58.368l-68.608-228.352v-154.624h-57.344v154.624q-8.192 43.008-34.816 121.856-21.504 58.368-37.888 106.496h61.44l39.936-150.528zM503.808 754.767v-99.328q0-47.104-16.384-67.584-21.504-29.696-60.416-29.696t-60.416 29.696q-15.36 21.504-15.36 67.584v99.328q0 46.080 15.36 66.56 21.504 29.696 60.416 29.696t60.416-29.696q16.384-20.48 16.384-66.56zM695.296 847.951v-285.696h-52.224v31.744q-30.72-35.84-59.392-35.84-25.6 0-33.792 21.504-4.096 13.312-4.096 43.008v225.28h52.224v-209.92q0-19.456 0-20.48 2.048-12.288 12.288-12.288 15.36 0 32.768 24.576v218.112h52.224z" />
<glyph unicode="&#xe80d;" glyph-name="down-open-big" horiz-adv-x="887" d="M64.512 658.511l378.88-364.544 380.928 364.544q22.528 26.624 49.152 0 26.624-22.528 0-49.152l-405.504-401.408q-22.528-22.528-49.152 0l-405.504 401.408q-26.624 26.624 0 49.152 24.576 24.576 51.2 0z" />
<glyph unicode="&#xe80e;" glyph-name="menu2" horiz-adv-x="717" d="M665.6 484.431q22.528 0 36.864-15.36t14.336-35.84-15.36-35.84-35.84-15.36h-614.4q-20.48 0-35.84 15.36t-15.36 35.84 14.336 35.84 36.864 15.36h614.4zM51.2 586.831q-20.48 0-35.84 15.36t-15.36 35.84 14.336 35.84 36.864 15.36h614.4q22.528 0 36.864-15.36t14.336-35.84-15.36-35.84-35.84-15.36h-614.4zM665.6 279.631q22.528 0 36.864-15.36t14.336-35.84-15.36-35.84-35.84-15.36h-614.4q-20.48 0-35.84 15.36t-15.36 35.84 14.336 35.84 36.864 15.36h614.4z" />
<glyph unicode="&#xe80f;" glyph-name="trash2" horiz-adv-x="804" d="M292.864 158.799v402.432q0 8.192-5.12 13.312t-13.312 5.12h-36.864q-8.192 0-13.312-5.12t-5.12-13.312v-402.432q0-8.192 5.12-13.312t13.312-5.12h36.864q8.192 0 13.312 5.12t5.12 13.312zM439.296 158.799v402.432q0 8.192-5.12 13.312t-13.312 5.12h-36.864q-8.192 0-13.312-5.12t-5.12-13.312v-402.432q0-8.192 5.12-13.312t13.312-5.12h36.864q8.192 0 13.312 5.12t5.12 13.312zM584.704 158.799v402.432q0 8.192-5.12 13.312t-12.288 5.12h-36.864q-8.192 0-13.312-5.12t-5.12-13.312v-402.432q0-8.192 5.12-13.312t13.312-5.12h36.864q7.168 0 12.288 5.12t5.12 13.312zM274.432 726.095h256l-27.648 66.56q-4.096 5.12-9.216 6.144h-181.248q-6.144-1.024-10.24-6.144zM804.864 707.663v-36.864q0-8.192-5.12-13.312t-13.312-5.12h-55.296v-541.696q0-47.104-26.624-81.92t-64.512-34.816h-475.136q-37.888 0-64.512 33.792t-27.648 80.896v543.744h-54.272q-8.192 0-13.312 5.12t-5.12 13.312v36.864q0 8.192 5.12 13.312t13.312 5.12h176.128l39.936 95.232q9.216 21.504 31.744 35.84t45.056 15.36h182.272q22.528 0 45.056-15.36t30.72-35.84l39.936-95.232h177.152q8.192 0 13.312-5.12t5.12-13.312z" />
<glyph unicode="&#xe810;" glyph-name="user-add" d="M634.88 205.903q184.32-65.536 184.32-124.928v-108.544h-819.2v206.848q36.864 14.336 83.968 26.624 96.256 34.816 132.096 70.656t35.84 97.28q0 22.528-23.552 49.152t-31.744 75.776q-2.048 12.288-23.552 25.6t-25.6 62.464q0 16.384 5.12 26.624t9.216 12.288l4.096 4.096q-8.192 51.2-12.288 90.112-6.144 55.296 40.96 114.688t163.84 59.392 163.84-59.392 43.008-114.688l-14.336-90.112q18.432-8.192 18.432-43.008-2.048-28.672-9.216-44.032t-14.336-17.408-14.336-8.192-9.216-18.432q-10.24-47.104-33.792-74.752t-23.552-50.176q0-61.44 36.864-97.28t133.12-70.656zM870.4 484.431h153.6v-102.4h-153.6v-153.6h-102.4v153.6h-153.6v102.4h153.6v153.6h102.4v-153.6z" />
<glyph unicode="&#xe811;" glyph-name="lock-open" horiz-adv-x="717" d="M655.36 535.631q20.48 0 40.96-20.48t20.48-40.96v-399.36q0-20.48-14.336-39.936t-34.816-25.6l-61.44-20.48q-53.248-16.384-98.304-16.384h-296.96q-47.104 0-100.352 16.384l-61.44 20.48q-20.48 6.144-34.816 25.6t-14.336 39.936v399.36q0 22.528 15.36 41.984t35.84 19.456h409.6v143.36q0 112.64-102.4 112.64t-102.4-112.64v-40.96h-102.4v20.48q0 112.64 52.224 174.080t152.576 61.44q204.8 0 204.8-235.52v-122.88h92.16z" />
<glyph unicode="&#xe812;" glyph-name="lock2" horiz-adv-x="717" d="M655.36 562.255q20.48 0 40.96-19.456t20.48-41.984v-399.36q0-49.152-49.152-67.584l-61.44-18.432q-43.008-16.384-98.304-16.384h-296.96q-57.344 0-100.352 16.384l-61.44 18.432q-49.152 18.432-49.152 67.584v399.36q0 22.528 15.36 41.984t35.84 19.456h102.4v71.68q0 112.64 52.224 174.080t152.576 61.44 152.576-61.44 52.224-174.080v-71.68h92.16zM256 654.415v-92.16h204.8v92.16q0 53.248-27.648 82.944t-74.752 29.696-74.752-29.696-27.648-82.944z" />
<glyph unicode="&#xe900;" glyph-name="To_Top" horiz-adv-x="1035" d="M927.733 276.831c0-20.933 0-40.667 0-61.333-277.867 0-554.8 0-832.8 0 0 20.533 0 40.267 0 61.333 276.933 0 554 0 832.8 0zM368.667 502.298c1.2 104.267 80.8 167.867 179.467 143.333 54.533-13.6 91.6-58.267 99.2-123.6 6.533-55.733-6.267-106.8-52.533-142.667-43.467-33.733-93.067-36.667-143.333-17.067-52.667 20.667-83.467 74.4-82.8 140zM574.667 555.631c-11.733 28.533-34.933 42.267-66.133 42.267-31.067 0-53.867-14.133-66.267-42.4-14.933-34.267-15.6-69.733-2-104.8 12.133-31.067 37.067-47.333 69.467-46.8 32.133 0.533 55.867 16.267 67.067 46.933 13.333 32.667 12.267 68.8-2.133 104.8zM713.733 640.964c52.267 0 104.267 3.6 155.467-1.067 44.533-4 71.867-43.867 70.533-90-1.333-47.733-30.667-82.8-76.533-87.333-28.267-2.8-56.933-0.533-88.133-0.533 0-36.133 0-68.933 0-102.8-21.733 0-40.8 0-61.333 0 0 94 0 188 0 281.733zM775.467 509.231c19.2 0 36.4-0.133 53.6 0 5.333 0 10.667 0.267 15.867 1.2 21.867 4 33.2 17.733 33.867 40.267s-10.133 39.2-31.733 41.467c-23.333 2.533-47.2 0.533-71.6 0.533 0-27.6 0-54 0-83.467zM181.733 590.698c-29.867 0-56.133 0-84 0 0 17.867 0 34 0 51.467 76.667 0 152.667 0 229.867 0 0-16.667 0-32.4 0-50.933-27.2 0-54.667 0-83.6 0 0-78.4 0-154 0-231.333-21.067 0-40.4 0-62.267 0 0 75.467 0 151.467 0 230.8z" />
<glyph unicode="&#xe901;" glyph-name="search_icon" horiz-adv-x="1035" d="M756.267 594.031c-16 105.867-69.333 189.333-158.8 248.4-73.467 48.4-156.533 66.667-247.067 54.133-70.933-9.733-132.4-37.6-182.533-82.667-104.8-94.267-144-211.733-116.4-348.933 18.8-93.333 70.4-168.533 153.467-223.6 54.133-36 115.467-55.467 182.133-58.133 74.267-2.933 142.4 14.8 202.667 52.8 4.933 3.067 8.8 4.533 12.4 4.533 5.067 0 9.067-2.933 13.733-7.6 22.8-23.333 46.267-46.667 68.933-69.333 7.867-7.867 15.733-15.6 23.467-23.467 17.333-17.333 34.667-34.667 52.133-52 38.667-38.533 78.533-78.533 117.733-117.867 20.133-20.133 43.467-26.4 69.467-18.4 22.933 6.933 39.2 23.733 44.8 46 6 24.133-1.733 49.867-20.933 69.067l-38.933 38.933c-72.533 72.533-147.733 147.733-221.867 221.333-9.333 9.2-10.133 16.133-3.2 27.2 35.733 57.2 53.733 119.733 53.733 185.733-0.533 5.733-0.933 11.333-1.333 17.067-0.8 12.133-1.733 24.667-3.6 36.8zM556.267 379.631c-41.6-40.133-94.267-62-149.067-62-2 0-4 0-6 0.133-128.133-2-215.867 104.4-223.467 204-4.933 64.533 16 125.333 58.8 171.2 43.467 46.533 105.6 73.867 166.267 73.333 121.733-1.067 224.133-104.667 223.467-226.267-0.133-59.2-25.733-117.6-70-160.4z" />
<glyph unicode="&#xe902;" glyph-name="play_button" horiz-adv-x="1115" d="M429.167 604.767l334.376-199.365-334.376-199.365z" />
<glyph unicode="&#xe903;" glyph-name="Pinterest_icon" horiz-adv-x="1035" d="M517.333 866.564c-239.333 0-433.333-194-433.333-433.333s194-433.333 433.333-433.333 433.333 194 433.333 433.333-194 433.333-433.333 433.333zM557.733 287.498c-39.333 3.067-55.867 22.533-86.8 41.333-16.933-88.933-37.733-174.267-99.067-218.933-18.933 134.533 27.867 235.6 49.6 342.933-37.067 62.4 4.4 187.867 82.667 156.933 96.133-38-83.333-231.867 37.2-256.133 125.733-25.333 177.067 218.267 99.2 297.467-112.667 114.4-328 2.667-301.6-161.067 6.4-40 47.733-52.133 16.533-107.467-72.133 16-93.6 72.933-90.933 148.667 4.4 124.133 111.6 211.067 218.933 223.067 135.867 15.2 263.333-49.867 280.933-177.6 19.733-144.133-61.467-300.4-206.667-289.2z" />
<glyph unicode="&#xe904;" glyph-name="mybag_icon" horiz-adv-x="1035" d="M60.8 527.898c0 3.333 0 6.8 0 10.133 0.533 1.733 1.067 3.467 1.733 5.2 4.4 12.4 14.4 19.467 27.467 19.467 65.067 0 130 0 195.067 0 2 0 3.867 0 6.4 0 0 13.867 0.133 27.2 0 40.533-0.133 16.8 1.6 33.333 4.933 49.733 17.067 83.333 87.867 153.467 171.6 169.333 10.533 2 21.2 3.2 31.733 4.667 8.933 0 17.733 0 26.667 0 4.533-0.533 9.067-1.2 13.6-1.733 53.867-6.8 99.333-30.133 136-69.867 33.333-36 52.933-78.667 57.2-127.6 1.733-19.467 0.933-39.2 1.333-58.8 0-2 0-3.867 0-6.267 2.533 0 4.533 0 6.533 0 66.8 0 133.733 0 200.533 0 16.933 0 29.733-9.333 32-24.4 0.933-5.733-0.133-12.267-2-18-20.8-66.267-41.733-132.533-62.8-198.8-21.067-66.4-41.867-132.8-63.333-199.067-16-49.067-63.867-83.067-115.333-83.067-141.067 0-282.133 0-423.2 0-53.2 0-101.067 35.067-117.2 85.867-9.333 29.333-18.667 58.667-28.133 87.867-24.667 76.8-49.2 153.6-73.867 230.4-9.067 28.267-18 56.4-26.933 84.4zM696.4 562.831c0 7.867 0 15.2 0 22.533 0.133 18.533 0 37.067-3.467 55.333-17.733 93.733-109.333 159.6-203.733 146.4-46.667-6.533-85.6-27.6-116.267-63.467-25.333-29.6-39.867-64.133-42.667-103.067-1.333-18.4-0.667-37.067-0.8-55.6 0-0.667 0.4-1.467 0.533-2.133 122.133 0 243.867 0 366.4 0zM715.867 467.498c-22.667 0.133-41.067-17.867-41.333-40.533-0.267-22.4 18-40.933 40.667-41.333 22.267-0.267 41.067 18 41.2 40.133 0.133 23.333-17.6 41.6-40.533 41.733zM310.667 467.498c-22.267 0.133-40.933-17.6-41.067-39.067-0.267-24 17.333-42.4 40.4-42.667 22.4-0.267 40.933 18 41.2 40.133 0.133 23.2-17.6 41.467-40.533 41.6z" />
<glyph unicode="&#xe905;" glyph-name="Instagram_icon" horiz-adv-x="1035" d="M516.533 350.431c45.2-0.533 82.533 36.667 82.667 82.533 0.133 45.333-36.4 82.267-81.467 82.4-45.867 0.133-82.667-36.533-82.667-82.267 0-45.6 36.133-82.133 81.467-82.667zM696.933 612.164c-26.4 0-52.267 0-78.267 0 0-26.133 0-51.2 0-77.067 26.667 0 52.267 0 78.267 0 0 26.133 0 51.467 0 77.067zM517.333 866.564c-239.333 0-433.333-194-433.333-433.333s194-433.333 433.333-433.333 433.333 194 433.333 433.333-194 433.333-433.333 433.333zM752.4 289.098c0-48.933-37.333-89.333-86.4-90.667-49.467-1.467-99.067-0.267-148.667-0.267 0 0.133 0 0.267 0 0.267-51.2 0-102.4-1.067-153.467 0.267-43.333 1.067-81.6 42.533-81.6 86.133-0.133 96.8 0 193.733 0 290.533 0 52 38.4 92.533 90.4 92.933 96.8 0.8 193.733 0.8 290.533 0 50-0.4 89.2-41.6 89.2-91.467 0.133-96 0.133-191.867 0-287.733zM590.133 326.831c-42.667-29.6-100.533-31.333-143.2-1.6-54.933 38.267-69.067 91.333-50.667 154.667-22.267 0-44.533 0-67.733 0 0-3.333 0-6.133 0-8.933 0-59.867 0-119.867 0-179.733 0-28.533 17.733-46.8 46.533-46.8 94.533-0.267 189.2-0.267 283.733 0 29.067 0 47.067 18.667 47.067 47.6 0 59.333 0 118.533 0 177.867 0 3.467 0 6.8 0 10.4-23.333 0-45.333 0-68 0 16-70.933 0.533-120-47.733-153.467z" />
<glyph unicode="&#xe906;" glyph-name="hamburger" horiz-adv-x="1035" d="M977.333 633.231c-306.667 0-613.333 0-920 0 0 22.267 0 44.4 0 66.667 306.667 0 613.333 0 920 0 0-22.267 0-44.4 0-66.667zM977.333 393.231c-306.667 0-613.333 0-920 0 0 22.267 0 44.4 0 66.667 306.667 0 613.333 0 920 0 0-22.267 0-44.4 0-66.667zM57.333 233.231c306.667 0 613.333 0 920 0 0-22.267 0-44.4 0-66.667-306.667 0-613.333 0-920 0 0 22.267 0 44.4 0 66.667z" />
<glyph unicode="&#xe907;" glyph-name="Facebook_icon" horiz-adv-x="1035" d="M517.333 866.564c-239.333 0-433.333-194-433.333-433.333s194-433.333 433.333-433.333c239.333 0 433.333 194 433.333 433.333s-194 433.333-433.333 433.333zM665.467 433.631c-30.133 0-59.733 0-90.667 0 0-109.333 0-217.067 0-325.467-45.467 0-89.467 0-135.067 0 0 107.733 0 215.467 0 324.533-22.667 0-43.867 0-65.867 0 0 36.933 0 72.533 0 109.733 21.333 0 42.8 0 65.467 0 0 12-0.133 22.4 0 32.933 0.267 23.867-0.133 47.733 0.933 71.467 2.8 63.067 43.6 98.4 93.2 106.533 24 4 48.8 3.733 73.2 4.4 23.067 0.667 46.267 0.133 70.4 0.133 0-38.533 0-75.467 0-113.6-22.267 0-43.867 0-65.467 0-25.067 0-36.8-11.6-36.8-36.267 0-20.4 0-40.667 0.133-61.067 0-0.667 0.133-1.333 0.533-3.467 33.2 0 66.533 0 102.4 0-4.4-37.067-8.267-72.8-12.4-109.867z" />
<glyph unicode="&#xe908;" glyph-name="pinterest-with-circle" d="M512 937.551c-271.462 0-491.52-220.058-491.52-491.52s220.058-491.52 491.52-491.52 491.52 220.058 491.52 491.52-220.058 491.52-491.52 491.52zM545.638 329.551c-31.539 2.406-44.749 18.022-69.427 32.973-13.568-71.219-30.157-139.52-79.309-175.206-15.206 107.725 22.221 188.518 39.629 274.381-29.645 49.92 3.533 150.323 66.099 125.645 76.954-30.515-66.662-185.6 29.747-205.005 100.659-20.173 141.773 174.694 79.36 237.978-90.214 91.494-262.502 2.099-241.306-128.87 5.12-32 38.246-41.728 13.21-85.914-57.702 12.8-74.957 58.317-72.704 118.989 3.533 99.328 89.242 168.909 175.155 178.483 108.698 12.083 210.688-39.885 224.819-142.182 15.821-115.405-49.101-240.282-165.274-231.27z" />
<glyph unicode="&#xe909;" glyph-name="clock" d="M512 915.608c-271.514 0-491.571-220.058-491.571-491.52 0-271.514 220.058-491.571 491.571-491.571 271.411 0 491.52 220.058 491.52 491.571 0 271.462-220.109 491.52-491.52 491.52zM511.949 34.968c-214.886 0-389.12 174.182-389.12 389.12 0 214.886 174.182 389.12 389.12 389.12 214.886 0 389.171-174.182 389.171-389.12 0-214.886-174.285-389.12-389.171-389.12zM563.2 458.392v272.896h-102.4v-319.744l-181.555-104.858 51.2-88.678 210.688 121.702c12.186 7.014 22.067 24.218 22.067 38.298v8.602l217.088 213.299c-10.138 13.875-21.043 27.085-33.126 39.219l-183.962-180.736z" />
<glyph unicode="&#xe90a;" glyph-name="home" horiz-adv-x="951" d="M804.571 369.231v-274.286q0-14.857-10.857-25.714t-25.714-10.857h-219.429v219.429h-146.286v-219.429h-219.429q-14.857 0-25.714 10.857t-10.857 25.714v274.286q0 0.571 0.286 1.714t0.286 1.714l328.571 270.857 328.571-270.857q0.571-1.143 0.571-3.429zM932 408.659l-35.429-42.286q-4.571-5.143-12-6.286h-1.714q-7.429 0-12 4l-395.429 329.714-395.429-329.714q-6.857-4.571-13.714-4-7.429 1.143-12 6.286l-35.429 42.286q-4.571 5.714-4 13.429t6.286 12.286l410.857 342.286q18.286 14.857 43.429 14.857t43.429-14.857l139.429-116.571v111.429q0 8 5.143 13.143t13.143 5.143h109.714q8 0 13.143-5.143t5.143-13.143v-233.143l125.143-104q5.714-4.571 6.286-12.286t-4-13.429z" />
<glyph unicode="&#xe90b;" glyph-name="home2" d="M956.006 382.031h-85.606v-307.2c0-22.784-9.933-51.2-51.2-51.2h-204.8v307.2h-204.8v-307.2h-204.8c-41.267 0-51.2 28.416-51.2 51.2v307.2h-85.606c-30.618 0-24.064 16.589-3.072 38.298l410.829 411.238c9.984 10.342 23.091 15.462 36.25 15.974 13.158-0.512 26.266-5.581 36.25-15.974l410.778-411.187c21.043-21.76 27.597-38.349-3.021-38.349z" />
<glyph unicode="&#xe90c;" glyph-name="skype" d="M955.955 319.794c6.758 31.898 10.394 65.126 10.394 99.226 0 255.283-201.216 462.285-449.382 462.285-26.163 0-51.814-2.406-76.8-6.81-40.192 26.010-87.654 41.114-138.598 41.114-143.923 0-260.608-120.013-260.608-268.134 0-49.408 13.107-95.795 35.789-135.578-5.939-30.003-9.114-61.133-9.114-92.928 0-255.283 201.216-462.285 449.28-462.285 28.211 0 55.654 2.611 82.278 7.68 36.71-20.275 78.592-31.795 123.187-31.795 143.923 0 260.608 120.013 260.608 268.083 0.051 42.854-9.728 83.251-27.034 119.142zM747.469 197.989c-20.787-30.208-51.507-54.221-91.29-71.219-39.373-16.896-86.63-25.395-140.39-25.395-64.512 0-118.63 11.622-160.922 34.714-30.208 16.794-55.091 39.475-73.984 67.482-19.046 28.416-28.723 56.525-28.723 83.61 0 16.896 6.298 31.59 18.688 43.622 12.288 11.878 28.109 18.022 46.899 18.022 15.411 0 28.774-4.813 39.578-14.182 10.342-9.011 19.2-22.426 26.317-39.578 7.987-18.79 16.691-34.611 25.856-47.104 8.806-11.981 21.504-22.118 37.632-30.003 16.282-7.885 38.298-11.878 65.28-11.878 37.12 0 67.584 8.090 90.522 24.218 22.426 15.821 33.28 34.611 33.28 57.702 0 18.278-5.683 32.614-17.408 43.878-12.186 11.674-28.416 20.89-47.923 27.187-20.429 6.502-48.179 13.619-82.483 20.992-46.592 10.291-86.17 22.477-117.709 36.198-32.256 14.080-58.214 33.69-77.21 58.214-19.2 24.73-29.030 55.91-29.030 92.518 0 34.918 10.24 66.406 30.515 93.594 20.122 26.88 49.408 47.872 87.194 62.31 37.274 14.182 81.715 21.402 131.891 21.402 40.090 0 75.418-4.813 104.806-14.182 29.594-9.523 54.579-22.323 74.189-38.093 19.814-15.923 34.509-32.922 43.725-50.483 9.318-17.92 14.080-35.584 14.080-52.787 0-16.486-6.195-31.488-18.483-44.595-12.288-13.21-27.802-19.814-46.080-19.814-16.589 0-29.696 4.198-38.707 12.39-8.397 7.578-17.203 19.61-26.829 36.71-11.213 21.914-24.781 39.219-40.346 51.302-15.104 11.878-40.346 17.92-75.059 17.92-32.205 0-58.419-6.707-77.773-19.814-18.842-12.749-27.904-27.238-27.904-44.339 0-10.598 2.97-19.405 9.011-26.88 6.4-8.090 15.411-15.104 26.778-20.992 11.776-6.144 23.91-10.957 36.096-14.438 12.493-3.584 33.485-8.806 62.208-15.718 36.403-7.987 69.786-16.998 99.277-26.675 29.952-9.882 55.808-22.016 76.902-36.096 21.504-14.49 38.605-33.024 50.637-55.091 12.134-22.221 18.278-49.613 18.278-81.408 0.051-38.144-10.547-72.806-31.386-103.219z" />
<glyph unicode="&#xe90d;" glyph-name="linkedin" d="M256 791.631c0-56.32-35.84-102.4-102.4-102.4-61.44 0-102.4 46.080-102.4 97.28 0 56.32 40.96 107.52 102.4 107.52s102.4-46.080 102.4-102.4zM51.2-27.569h204.8v665.6h-204.8v-665.6zM747.52 627.791c-107.52 0-168.96-61.44-194.56-102.4h-5.12l-10.24 87.040h-184.32c0-56.32 5.12-122.88 5.12-199.68v-440.32h204.8v363.52c0 20.48 0 35.84 5.12 51.2 15.36 35.84 40.96 81.92 97.28 81.92 71.68 0 102.4-61.44 102.4-143.36v-353.28h204.8v378.88c0 189.44-97.28 276.48-225.28 276.48z" />
<glyph unicode="&#xe90e;" glyph-name="chevron-right" d="M469.146 714.012c21.402-20.89 230.502-240.384 230.502-240.384 11.418-11.213 17.152-25.805 17.152-40.397s-5.734-29.184-17.152-40.294c0 0-209.101-219.597-230.502-240.384-21.402-20.89-59.904-22.323-82.688 0-22.835 22.221-24.627 53.299 0 80.589l191.846 200.090-191.846 200.090c-24.627 27.29-22.835 58.419 0 80.691 22.784 22.323 61.286 20.941 82.688 0z" />
<glyph unicode="&#xe90f;" glyph-name="chevron-left" d="M637.542 714.012c22.835-22.323 24.627-53.402 0-80.691l-191.846-200.090 191.846-200.090c24.627-27.29 22.835-58.419 0-80.589-22.784-22.323-61.286-20.89-82.688 0-21.402 20.787-230.502 240.384-230.502 240.384-11.418 11.11-17.152 25.702-17.152 40.294s5.734 29.184 17.152 40.397c0 0 209.101 219.494 230.502 240.384 21.402 20.941 59.904 22.323 82.688 0z" />
<glyph unicode="&#xe910;" glyph-name="chevron-up" d="M792.781 307.689c-22.323-22.835-53.402-24.627-80.691 0l-200.090 191.846-200.090-191.846c-27.29-24.627-58.419-22.835-80.589 0-22.323 22.784-20.89 61.286 0 82.688 20.787 21.402 240.384 230.502 240.384 230.502 11.11 11.418 25.702 17.152 40.294 17.152s29.184-5.734 40.397-17.152c0 0 219.494-209.101 240.384-230.502 20.941-21.402 22.323-59.904 0-82.688z" />
<glyph unicode="&#xe911;" glyph-name="quotes-left" d="M225 497.231c123.712 0 224-100.29 224-224 0-123.712-100.288-224-224-224s-224 100.288-224 224l-1 32c0 247.424 200.576 448 448 448v-128c-85.474 0-165.834-33.286-226.274-93.726-11.634-11.636-22.252-24.016-31.83-37.020 11.438 1.8 23.16 2.746 35.104 2.746zM801 497.231c123.71 0 224-100.29 224-224 0-123.712-100.29-224-224-224s-224 100.288-224 224l-1 32c0 247.424 200.576 448 448 448v-128c-85.474 0-165.834-33.286-226.274-93.726-11.636-11.636-22.254-24.016-31.832-37.020 11.44 1.8 23.16 2.746 35.106 2.746z" />
<glyph unicode="&#xe912;" glyph-name="quotes-right" d="M800 305.231c-123.712 0-224 100.29-224 224 0 123.712 100.288 224 224 224s224-100.288 224-224l1-32c0-247.424-200.576-448-448-448v128c85.474 0 165.834 33.286 226.274 93.726 11.634 11.636 22.252 24.016 31.83 37.020-11.438-1.8-23.16-2.746-35.104-2.746zM224 305.231c-123.71 0-224 100.29-224 224 0 123.712 100.29 224 224 224s224-100.288 224-224l1-32c0-247.424-200.576-448-448-448v128c85.474 0 165.834 33.286 226.274 93.726 11.636 11.636 22.254 24.016 31.832 37.020-11.44-1.8-23.16-2.746-35.106-2.746z" />
<glyph unicode="&#xe913;" glyph-name="youtube" d="M512 827.471c-503.194 0-512-44.749-512-394.24s8.806-394.24 512-394.24 512 44.749 512 394.24-8.806 394.24-512 394.24zM676.096 416.13l-229.888-107.315c-20.122-9.318-36.608 1.126-36.608 23.347v202.138c0 22.17 16.486 32.666 36.608 23.347l229.888-107.315c20.122-9.421 20.122-24.781 0-34.202z" />
<glyph unicode="&#xe914;" glyph-name="chevron-down" d="M231.219 571.573c22.323 22.835 53.402 24.627 80.691 0l200.090-191.846 200.090 191.846c27.29 24.627 58.419 22.835 80.589 0 22.323-22.784 20.89-61.286 0-82.688-20.787-21.402-240.384-230.502-240.384-230.502-11.11-11.418-25.702-17.152-40.294-17.152s-29.184 5.734-40.397 17.152c0 0-219.494 209.101-240.384 230.502-20.941 21.402-22.323 59.904 0 82.688z" />
<glyph unicode="&#xe915;" glyph-name="x" d="M504.775 526.244l410.112 410.112 81.323-81.351-410.084-410.084 404.764-404.793-80.469-80.441-404.764 404.764-424.334-424.334-81.323 81.323 424.334 424.334-418.987 419.015 80.441 80.441 418.987-418.987z" />
<glyph unicode="&#xe916;" glyph-name="final" horiz-adv-x="1273" d="M1263.118 140.367c0 100.739-69.743 182.106-170.482 182.106-27.122 0-54.244-3.875-81.366-3.875-89.116 0-143.36 81.366-143.36 162.733 0 193.73 224.726 333.215 383.585 391.334 0 15.498-3.875 30.997-7.749 42.621-11.624 30.997-30.997 38.746-81.366 19.373-244.099-96.865-480.45-278.971-480.45-608.311 0-232.476 147.235-402.958 337.090-402.958 135.611 0 244.099 77.492 244.099 216.977zM581.189 140.367c0 100.739-69.743 182.106-170.482 182.106-27.122 0-54.244-3.875-81.366-3.875-89.116 0-143.36 81.366-143.36 162.733 0 193.73 228.601 333.215 387.459 391.334 0 15.498-3.875 30.997-7.749 42.621-11.624 30.997-34.871 38.746-85.241 19.373-244.099-96.865-480.45-278.971-480.45-608.311 0-232.476 147.235-402.958 337.090-402.958 135.611 0 244.099 77.492 244.099 216.977z" />
<glyph unicode="&#xe917;" glyph-name="truck" d="M640 305.231h-554.667v469.333h554.667v-170.667zM725.333 561.231h110.336l102.997-102.997v-153.003h-213.333zM298.667 155.898c0-8.747-1.749-16.981-4.821-24.448-3.243-7.808-7.979-14.848-13.909-20.779s-13.013-10.667-20.779-13.909c-7.509-3.115-15.744-4.864-24.491-4.864s-16.981 1.749-24.448 4.821c-7.808 3.243-14.848 7.979-20.779 13.909s-10.667 13.013-13.909 20.779c-3.115 7.509-4.864 15.744-4.864 24.491s1.749 16.981 4.821 24.448c3.243 7.808 7.979 14.848 13.909 20.779s13.013 10.667 20.779 13.909c7.509 3.115 15.744 4.864 24.491 4.864s16.981-1.749 24.448-4.821c7.808-3.243 14.848-7.979 20.779-13.909s10.667-13.013 13.909-20.779c3.115-7.509 4.864-15.744 4.864-24.491zM938.667 155.898c0 20.139-4.011 39.467-11.307 57.131-0.981 2.304-1.963 4.608-3.072 6.869h57.045c23.552 0 42.667 19.115 42.667 42.667v213.333c0 10.923-4.181 21.845-12.501 30.165l-128 128c-7.723 7.723-18.389 12.501-30.165 12.501h-128v170.667c0 23.552-19.115 42.667-42.667 42.667h-640c-23.552 0-42.667-19.115-42.667-42.667v-554.667c0-23.552 19.115-42.667 42.667-42.667h57.045c-1.067-2.261-2.091-4.565-3.072-6.869-7.296-17.664-11.307-36.992-11.307-57.131s4.011-39.467 11.307-57.131c7.595-18.304 18.688-34.731 32.427-48.469s30.165-24.832 48.469-32.427c17.664-7.296 36.992-11.307 57.131-11.307s39.467 4.011 57.131 11.307c18.304 7.595 34.731 18.688 48.469 32.427s24.832 30.165 32.427 48.469c7.296 17.664 11.307 36.992 11.307 57.131s-4.011 39.467-11.307 57.131c-0.981 2.304-2.005 4.608-3.072 6.869h284.757c-1.067-2.261-2.091-4.565-3.072-6.869-7.296-17.664-11.307-36.992-11.307-57.131s4.011-39.467 11.307-57.131c7.595-18.304 18.688-34.731 32.427-48.469s30.165-24.832 48.469-32.427c17.664-7.296 36.992-11.307 57.131-11.307s39.467 4.011 57.131 11.307c18.304 7.595 34.731 18.688 48.469 32.427s24.832 30.165 32.427 48.469c7.296 17.664 11.307 36.992 11.307 57.131zM853.333 155.898c0-8.747-1.749-16.981-4.821-24.448-3.243-7.808-7.979-14.848-13.909-20.779s-13.013-10.667-20.779-13.909c-7.509-3.115-15.744-4.864-24.491-4.864s-16.981 1.749-24.448 4.821c-7.808 3.243-14.848 7.979-20.779 13.909s-10.667 13.013-13.909 20.779c-3.115 7.509-4.864 15.744-4.864 24.491s1.749 16.981 4.821 24.448c3.243 7.808 7.979 14.848 13.909 20.779s13.013 10.667 20.779 13.909c7.509 3.115 15.744 4.864 24.491 4.864s16.981-1.749 24.448-4.821c7.808-3.243 14.848-7.979 20.779-13.909s10.667-13.013 13.909-20.779c3.115-7.509 4.864-15.744 4.864-24.491z" />
<glyph unicode="&#xe918;" glyph-name="repeat" d="M170.667 475.898v85.333c0 17.408 3.456 33.92 9.685 48.939 6.485 15.616 16 29.739 27.819 41.557s25.941 21.333 41.557 27.819c15.019 6.229 31.531 9.685 48.939 9.685h494.336l-97.835-97.835c-16.683-16.683-16.683-43.691 0-60.331s43.691-16.683 60.331 0l170.667 170.667c4.096 4.096 7.168 8.832 9.259 13.867 2.091 5.12 3.2 10.539 3.243 15.957 0 0.213 0 0.469 0 0.683-0.043 5.419-1.109 10.88-3.243 15.957-2.091 5.035-5.163 9.771-9.259 13.867l-170.667 170.667c-16.683 16.683-43.691 16.683-60.331 0s-16.683-43.691 0-60.331l97.835-97.835h-494.336c-28.8 0-56.405-5.717-81.579-16.171-26.155-10.837-49.621-26.667-69.291-46.293s-35.456-43.136-46.293-69.291c-10.453-25.173-16.171-52.779-16.171-81.579v-85.333c0-23.552 19.115-42.667 42.667-42.667s42.667 19.115 42.667 42.667zM853.333 390.564v-85.333c0-17.408-3.456-33.92-9.685-48.939-6.485-15.616-16-29.739-27.819-41.557s-25.941-21.333-41.557-27.819c-15.019-6.229-31.531-9.685-48.939-9.685h-494.336l97.835 97.835c16.683 16.683 16.683 43.691 0 60.331s-43.691 16.683-60.331 0l-170.667-170.667c-4.096-4.096-7.211-8.832-9.259-13.867-2.133-5.077-3.2-10.453-3.243-15.872 0-0.299 0-0.597 0-0.853 0.043-5.419 1.109-10.795 3.2-15.872 2.091-5.035 5.163-9.771 9.259-13.867l170.667-170.667c16.683-16.683 43.691-16.683 60.331 0s16.683 43.691 0 60.331l-97.792 97.835h494.336c28.8 0 56.405 5.717 81.579 16.171 26.155 10.837 49.621 26.667 69.248 46.293s35.499 43.136 46.293 69.248c10.496 25.216 16.213 52.821 16.213 81.621v85.333c0 23.552-19.115 42.667-42.667 42.667s-42.667-19.115-42.667-42.667z" />
<glyph unicode="&#xe919;" glyph-name="message-circle" d="M938.667 454.692v21.205c0 0.725-0.043 1.621-0.085 2.475-2.859 49.152-14.464 96.128-33.323 139.264-19.371 44.288-46.379 84.523-79.445 118.912-34.773 36.181-76.288 65.92-122.667 87.211-44.8 20.565-94.123 33.152-146.133 36.053-0.683 0.043-1.536 0.085-2.347 0.085h-20.864c-59.947 0.683-122.965-13.227-181.931-43.008-52.181-26.539-97.749-63.531-133.931-108.203-28.629-35.371-51.371-75.605-66.859-119.253-14.976-42.283-23.083-87.68-23.083-134.4-0.597-54.4 10.795-111.36 35.157-165.419l-75.605-226.859c-2.816-8.363-3.072-17.835 0-26.965 7.467-22.357 31.616-34.432 53.973-26.965l226.731 75.563c49.493-22.485 105.984-35.243 165.376-35.115 58.539 0.384 115.84 13.141 168.149 36.949 41.429 18.859 79.744 44.672 113.067 76.8 32.299 31.147 59.819 68.139 80.64 109.867 27.477 53.291 43.307 115.84 43.136 181.803zM853.333 454.436c0.128-52.267-12.459-101.333-33.664-142.464-16.981-33.92-38.699-63.061-64.043-87.552-26.24-25.301-56.448-45.653-89.173-60.587-41.387-18.859-86.869-28.971-133.376-29.312-52.096-0.128-101.163 12.459-142.293 33.664-10.624 5.504-22.528 6.059-33.067 2.56l-162.261-54.101 54.101 162.261c3.755 11.221 2.56 22.912-2.389 32.725-23.595 46.72-34.347 96.213-33.835 142.464 0 37.845 6.443 73.643 18.176 106.837 12.203 34.347 30.123 66.091 52.736 94.080 28.629 35.328 64.768 64.725 106.283 85.76 46.592 23.552 96.085 34.304 142.336 33.792h20.608c40.789-2.389 79.232-12.331 114.133-28.331 36.523-16.768 69.248-40.235 96.725-68.779 26.155-27.179 47.488-58.965 62.763-93.952 14.72-33.707 23.851-70.357 26.24-108.885z" />
<glyph unicode="&#xf004;" glyph-name="heart" d="M512-14.769c-9.143 0-18.286 3.429-25.143 10.286l-356.571 344c-4.571 4-130.286 118.857-130.286 256 0 167.429 102.286 267.429 273.143 267.429 100 0 193.714-78.857 238.857-123.429 45.143 44.571 138.857 123.429 238.857 123.429 170.857 0 273.143-100 273.143-267.429 0-137.143-125.714-252-130.857-257.143l-356-342.857c-6.857-6.857-16-10.286-25.143-10.286z" />
<glyph unicode="&#xf01e;" glyph-name="repeat1, rotate-right" horiz-adv-x="878" d="M877.714 804.571v-256c0-20-16.571-36.571-36.571-36.571h-256c-14.857 0-28 9.143-33.714 22.857-5.714 13.143-2.857 29.143 8 39.429l78.857 78.857c-53.714 49.714-124.571 78.286-199.429 78.286-161.143 0-292.571-131.429-292.571-292.571s131.429-292.571 292.571-292.571c90.857 0 174.857 41.143 230.857 113.714 2.857 4 8 6.286 13.143 6.857 5.143 0 10.286-1.714 14.286-5.143l78.286-78.857c6.857-6.286 6.857-17.143 1.143-24.571-83.429-100.571-206.857-158.286-337.714-158.286-241.714 0-438.857 197.143-438.857 438.857s197.143 438.857 438.857 438.857c112.571 0 221.714-45.143 302.286-121.143l74.286 73.714c10.286 10.857 26.286 13.714 40 8 13.143-5.714 22.286-18.857 22.286-33.714z" />
<glyph unicode="&#xf023;" glyph-name="lock" horiz-adv-x="658" d="M182.857 497.231h292.571v109.714c0 80.571-65.714 146.286-146.286 146.286s-146.286-65.714-146.286-146.286v-109.714zM658.286 442.374v-329.143c0-30.286-24.571-54.857-54.857-54.857h-548.571c-30.286 0-54.857 24.571-54.857 54.857v329.143c0 30.286 24.571 54.857 54.857 54.857h18.286v109.714c0 140.571 115.429 256 256 256s256-115.429 256-256v-109.714h18.286c30.286 0 54.857-24.571 54.857-54.857z" />
<glyph unicode="&#xf086;" glyph-name="comments" d="M804.57 506.374c0-161.714-180-292.57-402.285-292.57-34.857 0-68.571 3.429-100.571 9.143-47.429-33.714-101.143-58.286-158.857-73.143-15.429-4-32-6.857-49.143-9.143h-1.714c-8.571 0-16.571 6.857-18.286 16.571v0c-2.286 10.857 5.143 17.714 11.429 25.143 22.286 25.143 47.429 47.429 66.857 94.857-92.571 53.714-152 136.571-152 229.143 0 161.714 180 292.57 402.285 292.57s402.285-130.857 402.285-292.57zM1023.999 360.088c0-93.143-59.429-175.429-152-229.143 19.429-47.429 44.571-69.714 66.857-94.857 6.286-7.429 13.714-14.286 11.429-25.143v0c-2.286-10.286-10.857-17.714-20-16.571-17.143 2.286-33.714 5.143-49.143 9.143-57.714 14.857-111.429 39.429-158.857 73.143-32-5.714-65.714-9.143-100.571-9.143-103.429 0-198.286 28.571-269.713 75.429 16.571-1.143 33.714-2.286 50.286-2.286 122.857 0 238.857 35.429 327.428 99.429 95.429 69.714 148 164 148 266.285 0 29.714-4.571 58.857-13.143 86.857 96.571-53.143 159.429-137.714 159.429-233.143z" />
<glyph unicode="&#xf091;" glyph-name="trophy" horiz-adv-x="951" d="M261.714 440.66c-24 52.571-42.286 122.286-42.286 212h-146.286v-54.857c0-56 76-133.714 188.571-157.143zM877.714 597.802v54.857h-146.286c0-89.714-18.286-159.429-42.286-212 112.571 23.429 188.571 101.143 188.571 157.143zM950.857 670.945v-73.143c0-108.571-131.429-228.571-309.714-237.143-22.857-29.143-44-46.286-54.286-54.286-30.286-27.429-38.286-56-38.286-92.571s18.286-73.143 73.143-73.143 109.714-36.571 109.714-91.429v-36.571c0-10.286-8-18.286-18.286-18.286h-475.429c-10.286 0-18.286 8-18.286 18.286v36.571c0 54.857 54.857 91.429 109.714 91.429s73.143 36.571 73.143 73.143-8 65.143-38.286 92.571c-10.286 8-31.429 25.143-54.286 54.286-178.286 8.571-309.714 128.571-309.714 237.143v73.143c0 30.286 24.571 54.857 54.857 54.857h164.571v54.857c0 50.286 41.143 91.429 91.429 91.429h329.143c50.286 0 91.429-41.143 91.429-91.429v-54.857h164.571c30.286 0 54.857-24.571 54.857-54.857z" />
<glyph unicode="&#xf095;" glyph-name="phone" horiz-adv-x="805" d="M804.573 236.659c0-20.571-9.143-60.571-17.714-79.429-12-28-44-46.286-69.714-60.571-33.714-18.286-68-29.143-106.287-29.143-53.143 0-101.144 21.714-149.715 39.429-34.857 12.571-68.571 28-100.001 47.429-97.143 60-214.287 177.144-274.287 274.287-19.429 31.429-34.857 65.143-47.429 100.001-17.714 48.571-39.429 96.571-39.429 149.715 0 38.286 10.857 72.571 29.143 106.287 14.286 25.714 32.571 57.714 60.571 69.714 18.857 8.571 58.857 17.714 79.429 17.714 4 0 8 0 12-1.714 12-4 24.571-32 30.286-43.429 18.286-32.571 36-65.714 54.857-97.715 9.143-14.857 26.286-33.143 26.286-50.857 0-34.857-103.43-85.714-103.43-116.572 0-15.429 14.286-35.429 22.286-49.143 57.714-104.001 129.715-176.001 233.715-233.715 13.714-8 33.714-22.286 49.143-22.286 30.857 0 81.714 103.43 116.572 103.43 17.714 0 36-17.143 50.857-26.286 32-18.857 65.143-36.571 97.715-54.857 11.429-5.714 39.429-18.286 43.429-30.286 1.714-4 1.714-8 1.714-12z" />
<glyph unicode="&#xf09e;" glyph-name="feed" horiz-adv-x="805" d="M219.429 168.088q0-45.714-32-77.714t-77.714-32-77.714 32-32 77.714 32 77.714 77.714 32 77.714-32 32-77.714zM512 97.802q1.143-16-9.714-27.429-10.286-12-26.857-12h-77.143q-14.286 0-24.571 9.429t-11.429 23.714q-12.571 130.857-105.429 223.714t-223.714 105.429q-14.286 1.143-23.714 11.429t-9.429 24.571v77.143q0 16.571 12 26.857 9.714 9.714 24.571 9.714h2.857q91.429-7.429 174.857-46t148-103.714q65.143-64.571 103.714-148t46-174.857zM804.571 96.659q1.143-15.429-10.286-26.857-10.286-11.429-26.286-11.429h-81.714q-14.857 0-25.429 10t-11.143 24.286q-6.857 122.857-57.714 233.429t-132.286 192-192 132.286-233.429 58.286q-14.286 0.571-24.286 11.143t-10 24.857v81.714q0 16 11.429 26.286 10.286 10.286 25.143 10.286h1.714q149.714-7.429 286.571-68.571t243.143-168q106.857-106.286 168-243.143t68.571-286.571z" />
<glyph unicode="&#xf104;" glyph-name="angle-left" horiz-adv-x="384" d="M358.286 625.231c0-4.571-2.286-9.714-5.714-13.143l-224.571-224.571 224.571-224.571c3.429-3.429 5.714-8.571 5.714-13.143s-2.286-9.714-5.714-13.143l-28.571-28.571c-3.429-3.429-8.571-5.714-13.143-5.714s-9.714 2.286-13.143 5.714l-266.286 266.286c-3.429 3.429-5.714 8.571-5.714 13.143s2.286 9.714 5.714 13.143l266.286 266.286c3.429 3.429 8.571 5.714 13.143 5.714s9.714-2.286 13.143-5.714l28.571-28.571c3.429-3.429 5.714-8 5.714-13.143z" />
<glyph unicode="&#xf105;" glyph-name="angle-right" horiz-adv-x="347" d="M340 387.517c0-4.571-2.286-9.714-5.714-13.143l-266.286-266.286c-3.429-3.429-8.571-5.714-13.143-5.714s-9.714 2.286-13.143 5.714l-28.571 28.571c-3.429 3.429-5.714 8-5.714 13.143 0 4.571 2.286 9.714 5.714 13.143l224.571 224.571-224.571 224.571c-3.429 3.429-5.714 8.571-5.714 13.143s2.286 9.714 5.714 13.143l28.571 28.571c3.429 3.429 8.571 5.714 13.143 5.714s9.714-2.286 13.143-5.714l266.286-266.286c3.429-3.429 5.714-8.571 5.714-13.143z" />
<glyph unicode="&#xf290;" glyph-name="shopping-bag" d="M1004 131.517l20-178.857c1.143-10.286-2.286-20.571-9.143-28.571-6.857-7.429-17.143-12-27.429-12h-950.857c-10.286 0-20.571 4.571-27.429 12-6.857 8-10.286 18.286-9.143 28.571l20 178.857h984zM950.857 610.945l49.143-442.857h-976l49.143 442.857c2.286 18.286 17.714 32.571 36.571 32.571h146.286v-73.143c0-40.571 32.571-73.143 73.143-73.143s73.143 32.571 73.143 73.143v73.143h219.429v-73.143c0-40.571 32.571-73.143 73.143-73.143s73.143 32.571 73.143 73.143v73.143h146.286c18.857 0 34.286-14.286 36.571-32.571zM731.429 716.659v-146.286c0-20-16.571-36.571-36.571-36.571s-36.571 16.571-36.571 36.571v146.286c0 80.571-65.714 146.286-146.286 146.286s-146.286-65.714-146.286-146.286v-146.286c0-20-16.571-36.571-36.571-36.571s-36.571 16.571-36.571 36.571v146.286c0 121.143 98.286 219.429 219.429 219.429s219.429-98.286 219.429-219.429z" />
</font>
</defs>
</svg>
